<svg width="18" height="19" viewBox="0 0 18 19" fill="none" xmlns="http://www.w3.org/2000/svg">
<path d="M1.5 9.11999C1.50489 9.27004 1.56603 9.44222 1.66874 9.55045L4.98967 13.0999C5.21465 13.304 5.64505 13.3876 5.89693 13.1515C6.14392 12.9203 6.13659 12.4702 5.8896 12.2389L3.55418 9.74723L15.8764 9.74723C16.2212 9.74723 16.5 9.46682 16.5 9.11999C16.5 8.77317 16.2212 8.49276 15.8764 8.49276L3.55663 8.49276L5.89204 6.00104C6.10479 5.78704 6.14392 5.32215 5.89938 5.08848C5.65483 4.8548 5.20731 4.92859 4.99211 5.14013L1.66874 8.68954C1.5538 8.81253 1.5 8.95519 1.5 9.11999Z" fill="#8C8C8C"/>
</svg>
