<svg width="18" height="19" viewBox="0 0 18 19" fill="none" xmlns="http://www.w3.org/2000/svg">
<path d="M5.68603 4.63478V3.76269C5.68603 2.70307 6.54502 1.84409 7.60464 1.84409H10.3953C11.455 1.84409 12.3139 2.70307 12.3139 3.76269V4.63478H15.2791C15.568 4.63478 15.8023 4.86905 15.8023 5.15804C15.8023 5.44703 15.568 5.68129 15.2791 5.68129H14.407V14.9255C14.407 15.9851 13.548 16.8441 12.4884 16.8441H5.51162C4.452 16.8441 3.59301 15.9851 3.59301 14.9255V5.68129H2.72092C2.43193 5.68129 2.19766 5.44703 2.19766 5.15804C2.19766 4.86905 2.43193 4.63478 2.72092 4.63478H5.68603ZM6.73255 4.63478H11.2674V3.76269C11.2674 3.28105 10.877 2.8906 10.3953 2.8906H7.60464C7.123 2.8906 6.73255 3.28105 6.73255 3.76269V4.63478ZM4.63952 5.68129V14.9255C4.63952 15.4071 5.02997 15.7976 5.51162 15.7976H12.4884C12.97 15.7976 13.3605 15.4071 13.3605 14.9255V5.68129H4.63952Z" fill="#092E38"/>
</svg>
