<svg width="24" height="25" viewBox="0 0 24 25" fill="none" xmlns="http://www.w3.org/2000/svg">
<path d="M11.3998 9.29404H8.84965C8.60108 9.29404 8.39965 9.09262 8.39965 8.84404C8.39965 8.59547 8.60108 8.39404 8.84965 8.39404H11.3998C11.6484 8.39404 11.8498 8.59547 11.8498 8.84404C11.8498 9.09262 11.6484 9.29404 11.3998 9.29404Z" fill="white"/>
<path d="M13.6156 11.5786H8.81563C8.56706 11.5786 8.36563 11.3771 8.36563 11.1286C8.36563 10.88 8.56706 10.6786 8.81563 10.6786H13.6156C13.8642 10.6786 14.0656 10.88 14.0656 11.1286C14.0656 11.3771 13.8642 11.5786 13.6156 11.5786Z" fill="white"/>
<path fill-rule="evenodd" clip-rule="evenodd" d="M16.7998 20.694C17.2373 20.694 17.6572 20.5202 17.9667 20.2109C18.2761 19.9014 18.4499 19.4817 18.4499 19.0441V8.77209C18.4589 8.32251 18.2832 7.88884 17.9639 7.57209L15.072 4.68016C14.7625 4.36837 14.3411 4.19332 13.902 4.19413H7.1998C6.76228 4.19413 6.34253 4.36797 6.03303 4.67735C5.72364 4.98684 5.5498 5.40657 5.5498 5.84413L5.54982 19.0439C5.54982 19.4815 5.72362 19.9013 6.03299 20.2108C6.34249 20.5202 6.76221 20.6941 7.19977 20.6941L16.7998 20.694ZM11.0351 19.7943C11.041 19.7941 11.047 19.794 11.0531 19.794L16.7998 19.794C16.9987 19.794 17.1896 19.715 17.3302 19.5744C17.4708 19.4338 17.5498 19.2429 17.5498 19.044V9.29387H14.9998C14.5623 9.29387 14.1426 9.12003 13.8331 8.81064C13.5237 8.50113 13.3498 8.08139 13.3498 7.64387V5.09386H7.19966C7.00078 5.09386 6.80994 5.17288 6.6693 5.31351C6.52866 5.45413 6.44965 5.64498 6.44965 5.84387L6.44982 19.0439C6.44982 19.2428 6.52884 19.4337 6.66946 19.5743C6.81008 19.7149 7.00094 19.7939 7.19983 19.7939L11.0351 19.7943ZM14.2498 5.17811L14.2498 7.64415C14.2498 7.84303 14.3288 8.03387 14.4695 8.17451C14.6101 8.31515 14.8009 8.39415 14.9998 8.39415H17.4659C17.4288 8.32598 17.3823 8.26344 17.3278 8.20813L14.4359 5.31619C14.3805 5.26169 14.318 5.21521 14.2498 5.17811Z" fill="white"/>
<path d="M15.3085 17.0416H14.7922H13.9862C13.6215 17.0416 13.325 16.7449 13.325 16.3804C13.325 16.0152 13.0291 15.7193 12.6639 15.7193C12.2987 15.7193 12.0027 16.0152 12.0027 16.3804C12.0027 16.7449 11.7063 17.0416 11.3416 17.0416C10.9769 17.0416 10.6805 16.7449 10.6805 16.3804V15.0581C10.6805 14.6929 10.3845 14.397 10.0193 14.397C9.6541 14.397 9.35818 14.6929 9.35818 15.0581V16.3804C9.35818 16.7449 9.06172 17.0416 8.69703 17.0416C8.33182 17.0416 8.03589 17.3375 8.03589 17.7027C8.03589 18.0679 8.33182 18.3639 8.69703 18.3639C9.20453 18.3639 9.66812 18.1721 10.0193 17.8574C10.3705 18.1721 10.8341 18.3639 11.3416 18.3639C11.8491 18.3639 12.3127 18.1721 12.6639 17.8574C13.0151 18.1721 13.4787 18.3639 13.9862 18.3639H15.3085C16.1262 18.3639 16.2375 17.0416 15.3085 17.0416Z" fill="white"/>
</svg>
