<svg width="32" height="33" viewBox="0 0 32 33" fill="none" xmlns="http://www.w3.org/2000/svg">
<path d="M26.9923 9.43215C27.0481 8.79632 26.7972 8.13283 26.3234 7.69051C25.8495 7.22054 25.2363 6.94409 24.5952 6.94409H7.48076C6.11495 6.94409 5 8.0499 5 9.40451V20.6284C5 21.983 6.11495 23.0889 7.48076 23.0889H24.5116C25.8774 23.0889 26.9923 21.983 26.9923 20.6284V9.43215ZM25.5429 20.6561C25.5429 21.209 25.1248 21.6513 24.5673 21.6513H7.48076C6.92328 21.6513 6.47731 21.209 6.47731 20.6561V9.43215C6.47731 8.87925 6.92328 8.43693 7.48076 8.43693H24.5116C25.069 8.43693 25.5429 8.87925 25.5429 9.43215V20.6561Z" fill="#8C8C8C"/>
<path d="M20.9159 14.2977H18.0449L17.3481 15.6247L15.1182 10.9803L13.1949 14.9612H10.7977V16.454H14.1147L15.1182 14.353L17.3481 19.1079L18.9647 15.7629H20.9159V14.2977Z" fill="#8C8C8C"/>
<path d="M21.4733 24.6093H10.6304C10.2123 24.6093 9.90568 24.9134 9.90568 25.3558C9.90568 25.7704 10.2123 26.0745 10.6304 26.0745H21.4733C21.8914 26.0745 22.198 25.7704 22.198 25.3558C22.198 24.9411 21.8635 24.6093 21.4733 24.6093Z" fill="#8C8C8C"/>
</svg>
