<svg width="100" height="26" viewBox="0 0 100 26" fill="none" xmlns="http://www.w3.org/2000/svg">
<path d="M4.09853 5.92372H7.45009C10.4489 5.92372 12.6538 8.2169 12.6538 11.3921C12.6538 14.6554 10.5371 16.8604 7.62649 16.8604H4.09853V5.92372ZM16.711 11.4803C16.711 6.27652 12.9184 2.66036 7.53829 2.66036H0.217773V20.3002H7.45009C12.9184 20.3002 16.711 16.684 16.711 11.4803Z" fill="black"/>
<path d="M21.8265 6.7176H18.0339V20.3003H21.8265V6.7176Z" fill="black"/>
<path d="M19.8862 4.95362C21.1209 4.95362 21.9147 4.07163 21.9147 2.74865C21.9147 1.51386 21.0327 0.543671 19.8862 0.543671C18.6514 0.543671 17.8576 1.42566 17.8576 2.74865C17.8576 4.07163 18.6514 4.95362 19.8862 4.95362Z" fill="black"/>
<path d="M31.9695 15.6255C31.7931 16.7721 30.4701 17.6541 28.8825 17.6541C27.5596 17.6541 26.7658 16.9485 26.7658 15.9783C26.7658 14.9199 27.4714 14.4789 28.9707 14.4789H31.9695V15.6255ZM28.3534 12.0976C25.09 12.0976 23.2378 13.597 23.2378 16.1547C23.2378 18.6243 25.0018 20.3883 27.8242 20.3883C29.6763 20.3883 31.1757 19.7709 32.0577 18.6243V20.3001H35.8503V11.392C35.8503 8.30502 33.7335 6.54104 30.2055 6.54104C27.9124 6.54104 26.1484 7.07023 24.1198 8.12861L25.3546 10.7746C26.7658 9.98079 28.177 9.628 29.3235 9.628C31.1757 9.628 32.1459 10.4218 32.1459 11.9212V12.1858L28.3534 12.0976Z" fill="black"/>
<path d="M41.7596 1.51394H37.967V20.3003H41.7596V1.51394Z" fill="black"/>
<path d="M50.1385 9.4516C51.9025 9.4516 53.049 10.5982 53.1372 12.4504H47.0515C47.3161 10.5982 48.4627 9.4516 50.1385 9.4516ZM50.2267 20.4765C52.6081 20.4765 54.6366 19.5945 55.9596 18.0951L53.931 15.9783C53.049 16.9485 51.8143 17.3895 50.5795 17.3895C48.9037 17.3895 47.5807 16.4193 47.1397 14.6553H56.7534C57.1062 9.7162 54.9012 6.54104 50.2267 6.54104C46.1695 6.54104 43.3472 9.36341 43.3472 13.5088C43.259 17.6541 45.9931 20.4765 50.2267 20.4765Z" fill="black"/>
<path d="M61.8689 13.597C61.8689 11.5685 63.0155 10.1573 64.9559 10.0691C66.6317 10.0691 67.6018 11.1275 67.6018 12.8914V20.3002H71.3944V11.7449C71.3944 8.5697 69.454 6.54112 66.4553 6.54112C64.3385 6.54112 62.7509 7.33491 61.8689 9.0989L57.9881 6.18832V20.3002H61.8689V13.597Z" fill="black"/>
<path d="M78.9795 9.54002C80.8316 9.54002 82.1546 10.9512 82.1546 13.068C82.1546 15.1848 80.9199 16.5959 78.9795 16.5959C77.1273 16.5959 75.8043 15.1848 75.8043 13.068C75.8925 11.0394 77.1273 9.54002 78.9795 9.54002ZM78.0975 19.5947C79.8615 19.5947 81.2727 18.8891 82.1546 17.6543V19.1537C82.1546 21.0059 80.7435 22.1525 78.5385 22.1525C77.0391 22.1525 75.6279 21.7115 74.3931 20.8295L72.9819 23.5637C74.4813 24.622 76.5099 25.3276 78.8031 25.3276C83.1248 25.3276 85.9472 22.8581 85.9472 18.9773V6.62944H82.1546V8.48162C81.2727 7.24684 79.8615 6.45305 78.0093 6.54125C74.5695 6.54125 72.2763 9.18721 72.2763 12.9798C72.2763 16.9487 74.6577 19.5947 78.0975 19.5947Z" fill="black"/>
<path d="M95.9138 15.6255C95.6492 16.7721 94.4144 17.6541 92.8269 17.6541C91.5039 17.6541 90.7101 16.9485 90.7101 15.9783C90.7101 14.9199 91.4157 14.4789 92.9151 14.4789H95.9138V15.6255ZM92.2977 12.0976C89.0343 12.0976 87.1821 13.597 87.1821 16.1547C87.1821 18.6243 88.9461 20.3883 91.7685 20.3883C93.6207 20.3883 95.12 19.7709 96.002 18.6243V20.3001H99.7946V11.392C99.7946 8.30502 97.6778 6.54104 94.1498 6.54104C91.8567 6.54104 90.0927 7.07023 88.0641 8.12861L89.2989 10.7746C90.7101 9.98079 92.1213 9.628 93.2678 9.628C95.12 9.628 96.0902 10.4218 96.0902 11.9212V12.1858L92.2977 12.0976Z" fill="black"/>
</svg>
