<svg width="22" height="23" viewBox="0 0 22 23" fill="none" xmlns="http://www.w3.org/2000/svg">
<path d="M14.9631 7.72201H7.05603C6.76884 7.72201 6.51995 7.9899 6.51995 8.29902C6.51995 8.62874 6.7497 8.87603 7.05603 8.87603H14.9631C15.2503 8.87603 15.4992 8.60813 15.4992 8.29902C15.4992 7.9693 15.2695 7.72201 14.9631 7.72201Z" fill="#81969C"/>
<path d="M13.1826 10.978H7.05603C6.7497 10.978 6.51995 11.2253 6.51995 11.555C6.51995 11.8847 6.7497 12.132 7.05603 12.132H13.1826C13.4889 12.132 13.7187 11.8847 13.7187 11.555C13.7187 11.2253 13.4889 10.978 13.1826 10.978Z" fill="#81969C"/>
<path d="M18.0264 4.56909H3.97358C3.66725 4.56909 3.4375 4.81638 3.4375 5.1461V18.4379C3.4375 18.644 3.53323 18.8089 3.70554 18.8913C3.91614 18.9943 4.16503 18.9737 4.35649 18.8089L7.68782 15.6765H18.0264C18.3328 15.6765 18.5625 15.4292 18.5625 15.0995V5.1461C18.5625 4.81638 18.3328 4.56909 18.0264 4.56909ZM17.4138 14.4813H7.45807C7.32405 14.4813 7.20918 14.5431 7.0943 14.6462L4.50965 17.1809V5.76433H17.4138V14.4813Z" fill="#81969C"/>
</svg>
