<svg width="22" height="23" viewBox="0 0 22 23" fill="none" xmlns="http://www.w3.org/2000/svg">
<path d="M14.0393 18.3191H7.95605C7.3952 18.3191 6.87274 17.9875 6.65864 17.4935L6.64584 17.4639L3.63795 12.1696C3.37382 11.7076 3.37033 11.132 3.62981 10.6689L6.67377 5.3058C6.93791 4.8498 7.42778 4.56909 7.95721 4.56909H14.0405C14.5804 4.56909 15.0598 4.84388 15.3228 5.30462L18.3667 10.6701C18.6274 11.1344 18.6274 11.7076 18.3691 12.1696L18.3679 12.1731L15.3239 17.5504C15.0493 18.0254 14.5594 18.3191 14.0393 18.3191ZM7.76173 17.0612C7.80595 17.0991 7.87925 17.1347 7.95605 17.1347H14.0393C14.1429 17.1347 14.2546 17.0624 14.3139 16.9558L17.3556 11.5844C17.4126 11.4814 17.4126 11.3606 17.3556 11.2587L14.3151 5.89683C14.2627 5.80682 14.1603 5.75233 14.0405 5.75233H7.95605C7.8362 5.75233 7.73264 5.808 7.67911 5.90039L4.63864 11.2575C4.58395 11.3547 4.58512 11.4731 4.6433 11.5738L7.76173 17.0612ZM11 10.2567C11.6412 10.2567 12.1636 10.7897 12.1636 11.4459C12.1636 12.0985 11.6412 12.6303 11 12.6303C10.3589 12.6303 9.83642 12.0973 9.83642 11.4411C9.83642 10.7885 10.3577 10.2567 11 10.2567ZM11 9.07228C9.71657 9.07228 8.67282 10.1347 8.67282 11.4411C8.67282 12.7499 9.71657 13.8147 11 13.8147C12.2835 13.8147 13.3272 12.7523 13.3272 11.4459C13.3272 10.1371 12.2835 9.07228 11 9.07228Z" fill="#8C8C8C"/>
</svg>
