<svg width="22" height="23" viewBox="0 0 22 23" fill="none" xmlns="http://www.w3.org/2000/svg">
<path fill-rule="evenodd" clip-rule="evenodd" d="M2.88745 3.88159C2.88745 3.19814 3.4415 2.64409 4.12495 2.64409H17.875C18.5584 2.64409 19.1124 3.19814 19.1124 3.88159V19.0066C19.1124 19.69 18.5584 20.2441 17.875 20.2441H4.12495C3.4415 20.2441 2.88745 19.69 2.88745 19.0066V3.88159ZM4.12495 3.74409C4.04901 3.74409 3.98745 3.80565 3.98745 3.88159V19.0066C3.98745 19.0825 4.04901 19.1441 4.12495 19.1441H17.875C17.9509 19.1441 18.0125 19.0825 18.0125 19.0066V3.88159C18.0125 3.80565 17.9509 3.74409 17.875 3.74409H4.12495ZM10.0139 7.27393C10.2286 7.48872 10.2286 7.83696 10.0139 8.05175L7.56245 10.5032L6.14229 9.083C5.9275 8.86821 5.9275 8.51997 6.14229 8.30518C6.35708 8.09039 6.70532 8.09039 6.92011 8.30518L7.56245 8.94752L9.23604 7.27393C9.45083 7.05914 9.79907 7.05914 10.0139 7.27393ZM10.45 9.03784C10.45 8.73408 10.6962 8.48784 11 8.48784H15.8125C16.1162 8.48784 16.3624 8.73408 16.3624 9.03784C16.3624 9.3416 16.1162 9.58784 15.8125 9.58784H11C10.6962 9.58784 10.45 9.3416 10.45 9.03784ZM5.63745 13.5066C5.63745 12.8231 6.1915 12.2691 6.87495 12.2691H8.24995C8.9334 12.2691 9.48745 12.8231 9.48745 13.5066V14.8816C9.48745 15.565 8.9334 16.1191 8.24995 16.1191H6.87495C6.1915 16.1191 5.63745 15.565 5.63745 14.8816V13.5066ZM6.87495 13.3691C6.79901 13.3691 6.73745 13.4306 6.73745 13.5066V14.8816C6.73745 14.9575 6.79901 15.0191 6.87495 15.0191H8.24995C8.32589 15.0191 8.38745 14.9575 8.38745 14.8816V13.5066C8.38745 13.4306 8.32589 13.3691 8.24995 13.3691H6.87495ZM10.45 14.1941C10.45 13.8903 10.6962 13.6441 11 13.6441H15.8125C16.1162 13.6441 16.3624 13.8903 16.3624 14.1941C16.3624 14.4978 16.1162 14.7441 15.8125 14.7441H11C10.6962 14.7441 10.45 14.4978 10.45 14.1941Z" fill="#8C8C8C"/>
</svg>
