<svg width="22" height="23" viewBox="0 0 22 23" fill="none" xmlns="http://www.w3.org/2000/svg">
<path d="M18.0454 11.031C18.4683 10.6015 18.7132 10.0137 18.7132 9.38061C18.7132 8.09192 17.6892 7.05192 16.4204 7.05192C15.1515 7.05192 14.1276 8.09192 14.1276 9.38061C14.1276 9.99105 14.3724 10.6015 14.7954 11.031C14.417 11.2345 14.1053 11.5058 13.8159 11.8224C13.5488 11.6415 13.2372 11.4832 12.9255 11.3928C13.5933 10.805 13.994 9.94583 13.994 9.04148C13.994 7.34583 12.6139 5.94409 10.9443 5.94409C9.27483 5.94409 7.89469 7.34583 7.89469 9.04148C7.89469 9.94583 8.29538 10.805 8.96318 11.3928C8.6738 11.5284 8.36216 11.6641 8.07277 11.8224C7.80565 11.4832 7.47175 11.2345 7.09332 11.031C7.51627 10.6015 7.76113 10.0137 7.76113 9.38061C7.76113 8.09192 6.73716 7.05192 5.46832 7.05192C4.19949 7.05192 3.22003 8.09192 3.22003 9.38061C3.22003 9.99105 3.4649 10.6015 3.88784 11.031C2.77483 11.6415 2.0625 12.8171 2.0625 14.1284C2.0625 14.2867 2.10702 14.3997 2.21832 14.5354C2.30736 14.6258 2.46318 14.7163 2.59675 14.7163C2.88613 14.7163 3.15325 14.4676 3.15325 14.151C3.15325 12.8397 4.19949 11.7771 5.49058 11.7771C6.13613 11.7771 6.75942 12.0484 7.20462 12.5458C6.00257 13.631 5.33476 15.1684 5.33476 16.7737C5.33476 16.9319 5.37928 17.045 5.49058 17.1806C5.57962 17.271 5.73545 17.3615 5.86901 17.3615C6.15839 17.3615 6.42551 17.1128 6.42551 16.7963C6.42551 15.3267 7.07106 13.9928 8.2286 13.1337C8.25086 13.111 8.27312 13.0884 8.29538 13.0884C9.07449 12.5006 9.98716 12.2293 10.9666 12.2293C11.9238 12.2293 12.8365 12.5232 13.6156 13.0884C13.6378 13.111 13.6824 13.1337 13.7046 13.1563C14.8399 14.038 15.5077 15.3493 15.5077 16.8189C15.5077 17.1128 15.7526 17.3841 16.0642 17.3841C16.22 17.3841 16.3313 17.3389 16.4426 17.2258C16.5317 17.1354 16.6207 16.9771 16.6207 16.8189C16.6207 15.191 15.9529 13.6537 14.7509 12.5684C15.1961 12.0937 15.7971 11.7997 16.4649 11.7997C17.756 11.7997 18.8022 12.8624 18.8022 14.1737C18.8022 14.4676 19.0471 14.7389 19.3587 14.7389C19.5146 14.7389 19.6259 14.6937 19.7594 14.5806C19.8485 14.4902 19.9375 14.3319 19.9375 14.1737C19.8707 12.8171 19.1361 11.6189 18.0454 11.031ZM17.6224 9.38061C17.6224 10.0589 17.1104 10.6015 16.4204 10.6015C15.7303 10.6015 15.2406 10.0589 15.2406 9.38061C15.2406 8.72496 15.7971 8.15974 16.4426 8.15974C17.1104 8.15974 17.6224 8.70235 17.6224 9.38061ZM10.9443 7.05192C12.0128 7.05192 12.881 7.93366 12.881 9.01887C12.881 10.1041 12.0128 10.9858 10.9443 10.9858C9.87585 10.9858 9.0077 10.1041 9.0077 9.01887C9.0077 7.93366 9.87585 7.05192 10.9443 7.05192ZM6.67038 9.38061C6.67038 10.0589 6.15839 10.6015 5.46832 10.6015C4.82277 10.6015 4.26627 10.0363 4.26627 9.38061C4.26627 8.70235 4.77825 8.15974 5.46832 8.15974C6.15839 8.15974 6.67038 8.70235 6.67038 9.38061Z" fill="#8C8C8C"/>
</svg>
