<svg width="22" height="23" viewBox="0 0 22 23" fill="none" xmlns="http://www.w3.org/2000/svg">
<path d="M12.9375 3.19769C12.8715 3.20573 12.8077 3.22669 12.75 3.25933L8.1875 5.90971H4.39062C3.49107 5.90971 2.75 6.6329 2.75 7.51996V17.3587C2.75 18.2458 3.49107 18.9767 4.39062 18.9767H18.75C18.8826 18.9767 19.0098 18.9247 19.1035 18.8322C19.1973 18.7398 19.25 18.6144 19.25 18.4836V8.62172C19.25 8.49095 19.1973 8.36554 19.1035 8.27307C19.0098 8.18059 18.8826 8.12864 18.75 8.12863H17.75V6.4028C17.75 6.27203 17.6973 6.14662 17.6035 6.05415C17.5098 5.96168 17.3826 5.90972 17.25 5.90971H14.8125L13.4375 3.45195C13.3896 3.36499 13.3164 3.29425 13.2272 3.24891C13.138 3.20356 13.0371 3.18572 12.9375 3.19769ZM12.8125 4.36879L14.9062 8.12863H6.32812L12.8125 4.36879ZM4.39062 6.89589H6.48438L4.36719 8.12863C4.07992 8.11692 3.83089 7.89317 3.76562 7.62012C3.76119 7.60447 3.75598 7.58904 3.75 7.5739V7.51996C3.75 7.16257 4.02739 6.89589 4.39062 6.89589ZM15.3594 6.89589H16.75V8.12863H16.0469L15.3594 6.89589ZM3.75 8.98384C3.9466 9.06956 4.16123 9.11481 4.39062 9.11481H17.25H18.25V11.8268H16C15.0391 11.8268 14.25 12.6051 14.25 13.5527C14.25 14.5002 15.0391 15.2785 16 15.2785H18.25V17.9905H4.39062C4.02739 17.9905 3.75 17.7161 3.75 17.3587V8.98384ZM16 12.813H18.25V14.2923H16C15.5759 14.2923 15.25 13.9709 15.25 13.5527C15.25 13.1344 15.5759 12.813 16 12.813Z" fill="#8C8C8C"/>
</svg>
