<svg width="22" height="23" viewBox="0 0 22 23" fill="none" xmlns="http://www.w3.org/2000/svg">
<path d="M11 5.34913C8.86385 5.34913 7.12622 7.08676 7.12622 9.22293C7.12622 11.3591 8.86385 13.0967 11 13.0967V12.0126C9.46195 12.0126 8.21036 10.761 8.21036 9.22293C8.21036 7.68486 9.46195 6.43326 11 6.43326V5.34913Z" fill="#8C8C8C"/>
<path d="M11 13.0967C13.1362 13.0967 14.8738 11.3591 14.8738 9.22294C14.8738 7.08678 13.1362 5.34914 11 5.34914V6.43328C12.5381 6.43328 13.7897 7.68487 13.7897 9.22294C13.7897 10.761 12.5381 12.0126 11 12.0126V13.0967Z" fill="#8C8C8C"/>
<path d="M11 2.38761C10.7006 2.38761 10.4579 2.63029 10.4579 2.92968V4.41045C10.4579 4.70985 10.7006 4.95252 11 4.95252C11.2993 4.95252 11.542 4.70983 11.542 4.41045V2.92968C11.542 2.6303 11.2993 2.38761 11 2.38761Z" fill="#8C8C8C"/>
<path d="M11 13.4934C10.7006 13.4934 10.4579 13.7361 10.4579 14.0355V15.5162C10.4579 15.8156 10.7006 16.0583 11 16.0583C11.2994 16.0583 11.542 15.8156 11.542 15.5162V14.0355C11.542 13.7361 11.2994 13.4934 11 13.4934Z" fill="#8C8C8C"/>
<path d="M15.8336 4.3896C15.6219 4.17787 15.2787 4.17794 15.067 4.38955L14.02 5.43664C13.8083 5.64833 13.8083 5.99154 14.02 6.20325C14.2316 6.41495 14.5749 6.41498 14.7866 6.20326L15.8336 5.15621C16.0453 4.94452 16.0453 4.6013 15.8336 4.3896Z" fill="#8C8C8C"/>
<path d="M7.98031 12.2426C7.76861 12.0309 7.42539 12.0309 7.2137 12.2426L6.16663 13.2897C5.955 13.5013 5.95507 13.8446 6.16666 14.0563C6.37839 14.268 6.72158 14.2679 6.93328 14.0563L7.98033 13.0092C8.19202 12.7975 8.19196 12.4543 7.98031 12.2426Z" fill="#8C8C8C"/>
<path d="M15.8125 8.6809C15.5131 8.6809 15.2704 8.92358 15.2704 9.22297C15.2704 9.52236 15.5131 9.76503 15.8125 9.76503H17.2932C17.5926 9.76503 17.8353 9.52235 17.8353 9.22297C17.8353 8.92359 17.5926 8.6809 17.2932 8.6809H15.8125Z" fill="#8C8C8C"/>
<path d="M4.70674 8.6809C4.40741 8.6809 4.16467 8.92358 4.16467 9.22297C4.16467 9.52236 4.40741 9.76503 4.70674 9.76503H6.18751C6.48689 9.76503 6.72958 9.52235 6.72958 9.22297C6.72958 8.92359 6.48689 8.6809 6.18751 8.6809H4.70674Z" fill="#8C8C8C"/>
<path d="M14.7866 12.2425C14.5749 12.0309 14.2317 12.0309 14.02 12.2425C13.8083 12.4542 13.8083 12.7975 14.0199 13.0092L15.067 14.0563C15.2787 14.2679 15.6218 14.268 15.8336 14.0563C16.0453 13.8446 16.0452 13.5013 15.8336 13.2896L14.7866 12.2425Z" fill="#8C8C8C"/>
<path d="M6.93327 4.38958C6.72158 4.17789 6.37836 4.17792 6.16665 4.38957C5.95502 4.60125 5.95504 4.94451 6.16664 5.15621L7.21369 6.20327C7.42533 6.41491 7.76858 6.41495 7.9803 6.20328C8.19207 5.99157 8.19195 5.64832 7.98032 5.43664L6.93327 4.38958Z" fill="#8C8C8C"/>
<path d="M19.5144 16.9441H2.48555C2.28113 16.9441 2.11536 17.1099 2.11536 17.3143C2.11536 17.5187 2.28113 17.6845 2.48555 17.6845H19.5144C19.7189 17.6845 19.8846 17.5187 19.8846 17.3143C19.8846 17.1099 19.7189 16.9441 19.5144 16.9441Z" fill="#8C8C8C"/>
<path fill-rule="evenodd" clip-rule="evenodd" d="M1.94348 17.3143C1.94348 17.015 2.1862 16.7722 2.48555 16.7722H19.5144C19.8138 16.7722 20.0565 17.015 20.0565 17.3143C20.0565 17.6136 19.8138 17.8564 19.5144 17.8564H2.48555C2.1862 17.8564 1.94348 17.6137 1.94348 17.3143ZM2.48555 17.116C2.37605 17.116 2.28723 17.2048 2.28723 17.3143C2.28723 17.4238 2.37605 17.5126 2.48555 17.5126H19.5144C19.6239 17.5126 19.7127 17.4238 19.7127 17.3143C19.7127 17.2048 19.6239 17.116 19.5144 17.116H2.48555Z" fill="#8C8C8C"/>
<path d="M5.4471 19.866C5.14775 19.866 4.90503 20.1087 4.90503 20.4081C4.90503 20.7074 5.14775 20.9501 5.4471 20.9501H16.5529C16.8523 20.9501 17.0949 20.7074 17.0949 20.4081C17.0949 20.1087 16.8523 19.866 16.5529 19.866H5.4471Z" fill="#8C8C8C"/>
</svg>
