<svg width="22" height="23" viewBox="0 0 22 23" fill="none" xmlns="http://www.w3.org/2000/svg">
<path d="M6.05335 4.39722C5.27985 4.39722 4.64062 5.03501 4.64062 5.8369V17.7388C4.64062 18.5407 5.27985 19.1785 6.05335 19.1785H15.9466C16.7201 19.1785 17.3594 18.5407 17.3594 17.7388V8.50637C17.3594 8.14501 17.2171 7.79817 16.9634 7.54087L14.2669 4.80672C14.0085 4.54472 13.6559 4.39722 13.2879 4.39722H6.05335ZM3.60938 5.8369C3.60938 4.47901 4.69686 3.36597 6.05335 3.36597H13.7193C14.0872 3.36597 14.4399 3.51347 14.6983 3.77547L17.9946 7.1179C18.2484 7.37519 18.3906 7.72204 18.3906 8.0834V17.7388C18.3906 19.0967 17.3031 20.2097 15.9466 20.2097H6.05335C4.69686 20.2097 3.60938 19.0967 3.60938 17.7388V5.8369Z" fill="#555555"/>
<path d="M8.69245 16.5222L8.54757 16.3924L8.40268 16.5222C8.07282 16.8178 7.63814 16.9974 7.16213 16.9974C6.89938 16.9974 6.68652 16.7846 6.68652 16.5218C6.68652 16.2591 6.89938 16.0462 7.16213 16.0462C7.6642 16.0462 8.07196 15.6381 8.07196 15.1364V13.751C8.07196 13.4882 8.28481 13.2753 8.54757 13.2753C8.81032 13.2753 9.02318 13.4882 9.02318 13.751V15.1364C9.02318 15.6381 9.43094 16.0462 9.933 16.0462C10.4351 16.0462 10.8428 15.6381 10.8428 15.1364C10.8428 14.8736 11.0557 14.6608 11.3184 14.6608C11.5812 14.6608 11.794 14.8736 11.794 15.1364C11.794 15.6381 12.2018 16.0462 12.7039 16.0462H14.0893C14.2772 16.0462 14.3897 16.1109 14.4564 16.1878C14.5267 16.269 14.5641 16.3851 14.5587 16.5127C14.5477 16.7747 14.3719 16.9974 14.0893 16.9974H12.7039C12.2279 16.9974 11.7932 16.8178 11.4633 16.5222L11.3184 16.3924L11.1735 16.5222C10.8437 16.8178 10.409 16.9974 9.933 16.9974C9.457 16.9974 9.02231 16.8178 8.69245 16.5222Z" fill="#092E38"/>
<path d="M7.01978 8.07015C7.01978 7.75528 7.28543 7.50003 7.61313 7.50003H13.627C13.9547 7.50003 14.2204 7.75528 14.2204 8.07015C14.2204 8.38501 13.9547 8.64026 13.627 8.64026H7.61313C7.28543 8.64026 7.01978 8.38501 7.01978 8.07015ZM7.01978 10.874C7.01978 10.5591 7.28543 10.3039 7.61313 10.3039H11.5223C11.85 10.3039 12.1156 10.5591 12.1156 10.874C12.1156 11.1888 11.85 11.4441 11.5223 11.4441H7.61313C7.28543 11.4441 7.01978 11.1888 7.01978 10.874Z" fill="#092E38"/>
</svg>
