<svg width="22" height="23" viewBox="0 0 22 23" fill="none" xmlns="http://www.w3.org/2000/svg">
<path d="M19.4858 18.0735H4.10521C3.84707 18.0735 3.65347 17.8565 3.65347 17.6178V4.33728C3.65347 4.07688 3.43836 3.88158 3.20174 3.88158C2.96511 3.88158 2.75 4.09858 2.75 4.33728V18.5509C2.75 18.8113 2.96511 19.0066 3.20174 19.0066H19.4858C19.7439 19.0066 19.9375 18.7896 19.9375 18.5509C19.9375 18.2905 19.7224 18.0735 19.4858 18.0735Z" fill="#8C8C8C"/>
<path d="M5.97663 16.0337H18.7328C18.8834 16.0337 19.0125 15.9686 19.0985 15.8384C19.1845 15.7082 19.2061 15.5563 19.163 15.4261L17.7433 10.9992C17.7003 10.8907 17.6142 10.7822 17.5067 10.7388C17.3991 10.6737 17.27 10.6737 17.141 10.7171L14.6457 11.6068L9.91319 6.4205C9.82715 6.3337 9.71959 6.26859 9.59053 6.26859C9.46146 6.26859 9.3539 6.312 9.24634 6.3988L5.65396 10.0878C5.56792 10.1746 5.5249 10.2831 5.5249 10.4133V15.578C5.5249 15.8167 5.7185 16.0337 5.97663 16.0337ZM6.42837 10.5869L9.56901 7.397L14.1724 12.4531C14.3015 12.5833 14.4951 12.6484 14.6672 12.5833L17.0119 11.737L18.109 15.1006H6.42837V10.5869Z" fill="#8C8C8C"/>
</svg>
