<svg width="22" height="23" viewBox="0 0 22 23" fill="none" xmlns="http://www.w3.org/2000/svg">
<path fill-rule="evenodd" clip-rule="evenodd" d="M11.6875 12.6472C11.6875 12.3624 11.9184 12.1316 12.2031 12.1316H18.0469C18.3316 12.1316 18.5625 12.3624 18.5625 12.6472V18.491C18.5625 18.7757 18.3316 19.0066 18.0469 19.0066H12.2031C11.9184 19.0066 11.6875 18.7757 11.6875 18.491V12.6472ZM12.7188 13.1628V17.9753H17.5312V13.1628H12.7188Z" fill="#7F7F7F"/>
<path fill-rule="evenodd" clip-rule="evenodd" d="M3.4375 12.6472C3.4375 12.3624 3.66835 12.1316 3.95312 12.1316H9.79688C10.0816 12.1316 10.3125 12.3624 10.3125 12.6472V18.491C10.3125 18.7757 10.0816 19.0066 9.79688 19.0066H3.95312C3.66835 19.0066 3.4375 18.7757 3.4375 18.491V12.6472ZM4.46875 13.1628V17.9753H9.28125V13.1628H4.46875Z" fill="#7F7F7F"/>
<path fill-rule="evenodd" clip-rule="evenodd" d="M11.6875 4.39722C11.6875 4.11244 11.9184 3.88159 12.2031 3.88159H18.0469C18.3316 3.88159 18.5625 4.11244 18.5625 4.39722V10.241C18.5625 10.5257 18.3316 10.7566 18.0469 10.7566H12.2031C11.9184 10.7566 11.6875 10.5257 11.6875 10.241V4.39722ZM12.7188 4.91284V9.72534H17.5312V4.91284H12.7188Z" fill="#7F7F7F"/>
<path fill-rule="evenodd" clip-rule="evenodd" d="M3.4375 4.39722C3.4375 4.11244 3.66835 3.88159 3.95312 3.88159H9.79688C10.0816 3.88159 10.3125 4.11244 10.3125 4.39722V10.241C10.3125 10.5257 10.0816 10.7566 9.79688 10.7566H3.95312C3.66835 10.7566 3.4375 10.5257 3.4375 10.241V4.39722ZM4.46875 4.91284V9.72534H9.28125V4.91284H4.46875Z" fill="#7F7F7F"/>
</svg>
