<svg width="22" height="23" viewBox="0 0 22 23" fill="none" xmlns="http://www.w3.org/2000/svg">
<path d="M18.5625 6.03276C18.5625 4.7779 17.5932 3.88158 16.2402 3.88158H5.73957C4.42699 3.88158 3.4375 4.79782 3.4375 6.03276V17.4659C3.4375 18.7207 4.40679 19.6171 5.75976 19.6171H16.2604C17.573 19.6171 18.5625 18.7008 18.5625 17.4659V6.03276ZM11.5149 4.91733H13.9382V8.901L13.2314 8.10426C13.1304 8.00467 12.9891 7.96484 12.8275 7.96484C12.6862 7.96484 12.5448 8.02459 12.4035 8.12418L11.5149 8.86116V4.91733ZM6.95118 18.5813H5.67899C4.99241 18.5813 4.50776 18.1033 4.50776 17.4659V6.03276C4.50776 5.39537 4.99241 4.91733 5.67899 4.91733H6.95118V18.5813ZM17.5326 17.4659C17.5326 18.1033 17.048 18.5813 16.3614 18.5813H7.98106V4.91733H10.4245V9.91683C10.4245 10.0961 10.5658 10.2754 10.7678 10.375C10.9899 10.4745 11.212 10.4347 11.3938 10.2953L12.8477 9.04043L14.0795 10.2953C14.2007 10.3949 14.3218 10.4347 14.4632 10.4347C14.4834 10.4347 15.0488 10.4347 15.0488 9.91683V4.91733H16.321C17.0076 4.91733 17.5326 5.39537 17.5326 6.03276V17.4659Z" fill="#8C8C8C"/>
</svg>
