<svg width="18" height="19" viewBox="0 0 18 19" fill="none" xmlns="http://www.w3.org/2000/svg">
<path d="M14.8428 11.7436L15.5427 9.13172C15.8259 8.07031 15.6764 6.93989 15.1271 5.98851C14.5779 5.03713 13.6736 4.34251 12.6127 4.05706C11.5513 3.77385 10.4208 3.92327 9.46945 4.47254C8.51806 5.02181 7.82338 5.92628 7.53794 6.98709L6.83813 9.59879L4.34354 11.039C4.25741 11.0888 4.18796 11.1629 4.14397 11.2521C4.09997 11.3414 4.08342 11.4416 4.0964 11.5403C4.10939 11.6389 4.15132 11.7315 4.21691 11.8063C4.28248 11.8811 4.36881 11.9348 4.46488 11.9605L7.49528 12.7725L7.43705 12.9899C7.25258 13.6783 7.34916 14.4118 7.70552 15.029C8.06189 15.6462 8.64886 16.0966 9.33731 16.2811C10.0258 16.4656 10.7593 16.369 11.3765 16.0127C11.9938 15.6563 12.4441 15.0694 12.6286 14.3809L12.6868 14.1636L15.7173 14.9756C15.8134 15.0013 15.9149 14.998 16.0091 14.966C16.1033 14.934 16.1859 14.8748 16.2465 14.7959C16.307 14.7169 16.3428 14.6218 16.3493 14.5226C16.3559 14.4233 16.3328 14.3243 16.2831 14.2382L14.8428 11.7436ZM11.715 13.9032L11.6567 14.1205C11.5413 14.5512 11.2596 14.9184 10.8734 15.1413C10.4873 15.3642 10.0284 15.4246 9.59771 15.3092C9.16703 15.1938 8.79983 14.9121 8.57689 14.526C8.35395 14.1398 8.29354 13.6809 8.40894 13.2503L8.46717 13.0329L11.715 13.9032ZM7.52168 10.3657C7.63722 10.299 7.72157 10.1892 7.75613 10.0603L8.50989 7.24729C8.72524 6.44358 9.25105 5.75834 9.97165 5.34232C10.6922 4.92629 11.5486 4.81356 12.3523 5.02892C13.156 5.24427 13.8413 5.77008 14.2573 6.49067C14.6734 7.21125 14.7861 8.0676 14.5708 8.8713L13.817 11.6843C13.7826 11.8132 13.8006 11.9505 13.8674 12.066L14.8047 13.6894L5.89826 11.303L7.52168 10.3657Z" fill="#092E38"/>
<path d="M2.25 5.72534C2.25 5.46646 2.45987 5.25659 2.71875 5.25659H5.53125C5.79013 5.25659 6 5.46646 6 5.72534C6 5.98423 5.79013 6.19409 5.53125 6.19409H2.71875C2.45987 6.19409 2.25 5.98423 2.25 5.72534Z" fill="#092E38"/>
<path d="M-4.09794e-08 8.72534C-1.83471e-08 8.46646 0.209867 8.25659 0.46875 8.25659L4.03125 8.25659C4.29013 8.25659 4.5 8.46646 4.5 8.72534C4.5 8.98423 4.29013 9.19409 4.03125 9.19409L0.46875 9.19409C0.209866 9.19409 -6.36117e-08 8.98423 -4.09794e-08 8.72534Z" fill="#092E38"/>
</svg>
